<svg width="76" height="76" viewBox="0 0 76 76" fill="none" xmlns="http://www.w3.org/2000/svg">
<path fill-rule="evenodd" clip-rule="evenodd" d="M38 0.5C17.2969 0.5 0.5 17.2969 0.5 38C0.5 58.7031 17.2969 75.5 38 75.5C58.6625 75.5 75.5 58.7031 75.5 38C75.5 17.2969 58.6625 0.5 38 0.5ZM62.7688 17.7844C67.3858 23.4073 69.9408 30.4403 70.0094 37.7156C68.9531 37.5125 58.3781 35.3562 47.7219 36.7C47.475 36.1687 47.2719 35.6 47.0281 35.0312C46.3654 33.4669 45.661 31.9205 44.9156 30.3937C56.7094 25.5938 62.0781 18.6812 62.7688 17.7844ZM38 6.03438C46.1344 6.03438 53.5781 9.08125 59.2313 14.0844C58.6625 14.8969 53.8219 21.3656 42.4344 25.6344C37.1844 15.9969 31.3719 8.10313 30.475 6.88438C32.9416 6.3084 35.467 6.02209 38 6.03125V6.03438ZM24.375 9.04063C25.2281 10.1813 30.9219 18.1125 36.25 27.5469C21.2812 31.5344 8.0625 31.4531 6.64062 31.4531C8.71562 21.5281 15.4281 13.2719 24.375 9.04063ZM5.95 38.0406V37.0656C7.33437 37.1063 22.8687 37.3094 38.8563 32.5094C39.7906 34.3 40.6437 36.1281 41.4562 37.9594C41.05 38.0813 40.6031 38.2031 40.1969 38.325C23.6844 43.6531 14.8969 58.2125 14.1656 59.4344C8.87628 53.5641 5.94938 45.9423 5.95 38.0406ZM38 70.05C30.5969 70.05 23.7656 67.5281 18.3563 63.3C18.925 62.1188 25.4312 49.5906 43.4906 43.2875C43.5719 43.2469 43.6156 43.2469 43.6937 43.2063C48.2094 54.8781 50.0375 64.6813 50.5281 67.4875C46.6625 69.1562 42.4344 70.05 38 70.05ZM55.8563 64.5594C55.5313 62.6063 53.8219 53.2531 49.6312 41.7406C59.6781 40.1562 68.4625 42.7594 69.5625 43.125C68.1781 52.0312 63.0531 59.7188 55.8563 64.5594Z" fill="#DBA757"/>
</svg>
